<svg xmlns="http://www.w3.org/2000/svg" viewBox="0 0 32 32" width="32" height="32">
  <!-- Shield body -->
  <path d="M16 2 L4 7 L4 15 C4 22.5 9.2 28.4 16 30 C22.8 28.4 28 22.5 28 15 L28 7 Z" fill="#1e40af"/>
  <!-- Shield inner face -->
  <path d="M16 4.5 L6.5 8.5 L6.5 15 C6.5 21.2 10.8 26.2 16 27.6 C21.2 26.2 25.5 21.2 25.5 15 L25.5 8.5 Z" fill="#0f172a"/>
  <!-- Lock body -->
  <rect x="12" y="15" width="8" height="7" rx="1" fill="#1e40af"/>
  <!-- Lock shackle -->
  <path d="M13.5 15 L13.5 12.5 C13.5 11.1 14.6 10 16 10 C17.4 10 18.5 11.1 18.5 12.5 L18.5 15" fill="none" stroke="#1e40af" stroke-width="2" stroke-linecap="round"/>
  <!-- Keyhole -->
  <circle cx="16" cy="18" r="1.2" fill="#0f172a"/>
  <rect x="15.4" y="18.5" width="1.2" height="2" rx="0.4" fill="#0f172a"/>
</svg>